<mxfile host="app.diagrams.net" modified="2023-01-17T08:10:30.524Z" agent="5.0 (Windows)" etag="_P6lL7DERfqKeczKp3IZ" version="20.8.1" type="github">
  <diagram id="6KEP-MKIwCS_zXR8pNEk" name="Page-1">
    <mxGraphModel dx="1262" dy="564" grid="1" gridSize="10" guides="1" tooltips="1" connect="1" arrows="1" fold="1" page="1" pageScale="1" pageWidth="850" pageHeight="1100" math="0" shadow="0">
      <root>
        <mxCell id="0" />
        <mxCell id="1" parent="0" />
        <mxCell id="sBJwg2jd51SlTlau0avR-4" value="" style="edgeStyle=orthogonalEdgeStyle;rounded=0;orthogonalLoop=1;jettySize=auto;html=1;" parent="1" source="sBJwg2jd51SlTlau0avR-1" target="sBJwg2jd51SlTlau0avR-2" edge="1">
          <mxGeometry relative="1" as="geometry" />
        </mxCell>
        <mxCell id="sBJwg2jd51SlTlau0avR-1" value="Spectrum Protect agent Installation Diagram" style="rounded=1;whiteSpace=wrap;html=1;" parent="1" vertex="1">
          <mxGeometry x="240" y="40" width="280" height="40" as="geometry" />
        </mxCell>
        <mxCell id="sBJwg2jd51SlTlau0avR-42" value="" style="edgeStyle=orthogonalEdgeStyle;rounded=0;orthogonalLoop=1;jettySize=auto;html=1;" parent="1" source="sBJwg2jd51SlTlau0avR-2" target="sBJwg2jd51SlTlau0avR-40" edge="1">
          <mxGeometry relative="1" as="geometry" />
        </mxCell>
        <mxCell id="sBJwg2jd51SlTlau0avR-2" value="Required Variables defined ?" style="rhombus;whiteSpace=wrap;html=1;" parent="1" vertex="1">
          <mxGeometry x="280" y="120" width="200" height="80" as="geometry" />
        </mxCell>
        <mxCell id="sBJwg2jd51SlTlau0avR-8" value="" style="endArrow=classic;html=1;rounded=0;exitX=0;exitY=0.5;exitDx=0;exitDy=0;entryX=0.5;entryY=0;entryDx=0;entryDy=0;" parent="1" source="sBJwg2jd51SlTlau0avR-2" target="sBJwg2jd51SlTlau0avR-70" edge="1">
          <mxGeometry width="50" height="50" relative="1" as="geometry">
            <mxPoint x="280" y="210" as="sourcePoint" />
            <mxPoint x="120" y="120" as="targetPoint" />
            <Array as="points">
              <mxPoint x="120" y="160" />
              <mxPoint x="100" y="160" />
            </Array>
          </mxGeometry>
        </mxCell>
        <mxCell id="sBJwg2jd51SlTlau0avR-11" value="no" style="text;html=1;align=center;verticalAlign=middle;resizable=0;points=[];autosize=1;strokeColor=none;fillColor=none;" parent="1" vertex="1">
          <mxGeometry x="210" y="160" width="40" height="30" as="geometry" />
        </mxCell>
        <mxCell id="sBJwg2jd51SlTlau0avR-14" value="Assert that all the required vars are defined properly as applicable " style="text;html=1;align=center;verticalAlign=middle;resizable=0;points=[];autosize=1;strokeColor=none;fillColor=none;" parent="1" vertex="1">
          <mxGeometry x="390" y="80" width="360" height="30" as="geometry" />
        </mxCell>
        <mxCell id="sBJwg2jd51SlTlau0avR-17" value="" style="edgeStyle=orthogonalEdgeStyle;rounded=0;orthogonalLoop=1;jettySize=auto;html=1;" parent="1" target="sBJwg2jd51SlTlau0avR-16" edge="1">
          <mxGeometry relative="1" as="geometry">
            <mxPoint x="380" y="320" as="sourcePoint" />
          </mxGeometry>
        </mxCell>
        <mxCell id="sBJwg2jd51SlTlau0avR-19" value="" style="edgeStyle=orthogonalEdgeStyle;rounded=0;orthogonalLoop=1;jettySize=auto;html=1;entryX=0.5;entryY=0;entryDx=0;entryDy=0;" parent="1" source="sBJwg2jd51SlTlau0avR-16" target="sBJwg2jd51SlTlau0avR-22" edge="1">
          <mxGeometry relative="1" as="geometry">
            <mxPoint x="360" y="730" as="targetPoint" />
          </mxGeometry>
        </mxCell>
        <mxCell id="sBJwg2jd51SlTlau0avR-16" value="ex-&lt;div style=&quot;font-family: Consolas, &amp;quot;Courier New&amp;quot;, monospace; font-weight: normal; font-size: 14px; line-height: 19px;&quot;&gt;&lt;div&gt;enable_ba_client&lt;/div&gt;&lt;/div&gt;" style="rhombus;whiteSpace=wrap;html=1;labelBackgroundColor=none;" parent="1" vertex="1">
          <mxGeometry x="280" y="360" width="200" height="80" as="geometry" />
        </mxCell>
        <mxCell id="sBJwg2jd51SlTlau0avR-21" value="yes" style="text;html=1;align=center;verticalAlign=middle;resizable=0;points=[];autosize=1;strokeColor=none;fillColor=none;" parent="1" vertex="1">
          <mxGeometry x="380" y="520" width="40" height="30" as="geometry" />
        </mxCell>
        <mxCell id="sBJwg2jd51SlTlau0avR-27" value="" style="edgeStyle=orthogonalEdgeStyle;rounded=0;orthogonalLoop=1;jettySize=auto;html=1;" parent="1" source="sBJwg2jd51SlTlau0avR-22" edge="1">
          <mxGeometry relative="1" as="geometry">
            <mxPoint x="560" y="520" as="targetPoint" />
          </mxGeometry>
        </mxCell>
        <mxCell id="sBJwg2jd51SlTlau0avR-64" value="" style="edgeStyle=orthogonalEdgeStyle;rounded=0;orthogonalLoop=1;jettySize=auto;html=1;entryX=0.5;entryY=0;entryDx=0;entryDy=0;" parent="1" source="sBJwg2jd51SlTlau0avR-22" target="sBJwg2jd51SlTlau0avR-35" edge="1">
          <mxGeometry relative="1" as="geometry">
            <mxPoint x="380" y="590" as="targetPoint" />
          </mxGeometry>
        </mxCell>
        <mxCell id="sBJwg2jd51SlTlau0avR-22" value="&lt;div&gt;agent already installed &lt;br&gt;&lt;/div&gt;&lt;div&gt;on the system?&lt;/div&gt;" style="rhombus;whiteSpace=wrap;html=1;" parent="1" vertex="1">
          <mxGeometry x="280" y="470" width="200" height="100" as="geometry" />
        </mxCell>
        <mxCell id="sBJwg2jd51SlTlau0avR-32" value="&lt;font color=&quot;#008040&quot;&gt;yes&lt;/font&gt;" style="text;html=1;align=center;verticalAlign=middle;resizable=0;points=[];autosize=1;strokeColor=none;fillColor=none;" parent="1" vertex="1">
          <mxGeometry x="390" y="440" width="40" height="30" as="geometry" />
        </mxCell>
        <mxCell id="sBJwg2jd51SlTlau0avR-34" value="no" style="text;html=1;align=center;verticalAlign=middle;resizable=0;points=[];autosize=1;strokeColor=none;fillColor=none;" parent="1" vertex="1">
          <mxGeometry x="380" y="570" width="40" height="30" as="geometry" />
        </mxCell>
        <mxCell id="sBJwg2jd51SlTlau0avR-44" value="" style="edgeStyle=orthogonalEdgeStyle;rounded=0;orthogonalLoop=1;jettySize=auto;html=1;" parent="1" source="sBJwg2jd51SlTlau0avR-35" target="sBJwg2jd51SlTlau0avR-43" edge="1">
          <mxGeometry relative="1" as="geometry" />
        </mxCell>
        <mxCell id="sBJwg2jd51SlTlau0avR-35" value="Start Agent Installation" style="rounded=0;whiteSpace=wrap;html=1;" parent="1" vertex="1">
          <mxGeometry x="320" y="600" width="120" height="40" as="geometry" />
        </mxCell>
        <mxCell id="sBJwg2jd51SlTlau0avR-40" value="Enable required Agents to install " style="rounded=0;whiteSpace=wrap;html=1;" parent="1" vertex="1">
          <mxGeometry x="280" y="240" width="200" height="80" as="geometry" />
        </mxCell>
        <mxCell id="sBJwg2jd51SlTlau0avR-52" value="" style="edgeStyle=orthogonalEdgeStyle;rounded=0;orthogonalLoop=1;jettySize=auto;html=1;" parent="1" source="sBJwg2jd51SlTlau0avR-43" target="sBJwg2jd51SlTlau0avR-51" edge="1">
          <mxGeometry relative="1" as="geometry" />
        </mxCell>
        <mxCell id="sBJwg2jd51SlTlau0avR-43" value="&lt;font color=&quot;#336600&quot;&gt;Installation completed&lt;/font&gt; " style="ellipse;whiteSpace=wrap;html=1;" parent="1" vertex="1">
          <mxGeometry x="320" y="680" width="120" height="80" as="geometry" />
        </mxCell>
        <mxCell id="sBJwg2jd51SlTlau0avR-45" value="&lt;font color=&quot;#008000&quot;&gt;success&lt;/font&gt;" style="text;html=1;align=center;verticalAlign=middle;resizable=0;points=[];autosize=1;strokeColor=none;fillColor=none;" parent="1" vertex="1">
          <mxGeometry x="375" y="645" width="70" height="30" as="geometry" />
        </mxCell>
        <mxCell id="sBJwg2jd51SlTlau0avR-46" value="&lt;font color=&quot;#009900&quot;&gt;yes&lt;/font&gt;" style="text;html=1;align=center;verticalAlign=middle;resizable=0;points=[];autosize=1;strokeColor=none;fillColor=none;" parent="1" vertex="1">
          <mxGeometry x="480" y="480" width="40" height="30" as="geometry" />
        </mxCell>
        <mxCell id="sBJwg2jd51SlTlau0avR-48" style="edgeStyle=orthogonalEdgeStyle;rounded=0;orthogonalLoop=1;jettySize=auto;html=1;exitX=1;exitY=0.5;exitDx=0;exitDy=0;entryX=0.5;entryY=1;entryDx=0;entryDy=0;" parent="1" source="sBJwg2jd51SlTlau0avR-47" target="sBJwg2jd51SlTlau0avR-55" edge="1">
          <mxGeometry relative="1" as="geometry">
            <mxPoint x="640" y="520" as="targetPoint" />
            <Array as="points">
              <mxPoint x="640" y="520" />
            </Array>
          </mxGeometry>
        </mxCell>
        <mxCell id="sBJwg2jd51SlTlau0avR-47" value="&lt;div&gt;Agent is registered to Server?&lt;/div&gt;" style="rhombus;whiteSpace=wrap;html=1;" parent="1" vertex="1">
          <mxGeometry x="520" y="480" width="80" height="80" as="geometry" />
        </mxCell>
        <mxCell id="sBJwg2jd51SlTlau0avR-49" value="no" style="text;html=1;align=center;verticalAlign=middle;resizable=0;points=[];autosize=1;strokeColor=none;fillColor=none;" parent="1" vertex="1">
          <mxGeometry x="560" y="560" width="40" height="30" as="geometry" />
        </mxCell>
        <mxCell id="sBJwg2jd51SlTlau0avR-102" value="" style="edgeStyle=orthogonalEdgeStyle;rounded=0;orthogonalLoop=1;jettySize=auto;html=1;fontColor=#336600;" parent="1" source="sBJwg2jd51SlTlau0avR-51" target="sBJwg2jd51SlTlau0avR-100" edge="1">
          <mxGeometry relative="1" as="geometry" />
        </mxCell>
        <mxCell id="sBJwg2jd51SlTlau0avR-51" value="&lt;div&gt;Perform Agent Registration&lt;/div&gt;&lt;div&gt;(serverside)&lt;/div&gt;" style="whiteSpace=wrap;html=1;" parent="1" vertex="1">
          <mxGeometry x="520" y="680" width="120" height="80" as="geometry" />
        </mxCell>
        <mxCell id="sBJwg2jd51SlTlau0avR-54" value="" style="endArrow=classic;html=1;rounded=0;entryX=0.333;entryY=0;entryDx=0;entryDy=0;entryPerimeter=0;" parent="1" target="sBJwg2jd51SlTlau0avR-51" edge="1">
          <mxGeometry width="50" height="50" relative="1" as="geometry">
            <mxPoint x="560" y="560" as="sourcePoint" />
            <mxPoint x="610" y="510" as="targetPoint" />
          </mxGeometry>
        </mxCell>
        <mxCell id="sBJwg2jd51SlTlau0avR-86" value="" style="edgeStyle=orthogonalEdgeStyle;rounded=0;orthogonalLoop=1;jettySize=auto;html=1;" parent="1" source="sBJwg2jd51SlTlau0avR-55" target="sBJwg2jd51SlTlau0avR-84" edge="1">
          <mxGeometry relative="1" as="geometry" />
        </mxCell>
        <mxCell id="sBJwg2jd51SlTlau0avR-55" value="Go to the next agent" style="whiteSpace=wrap;html=1;aspect=fixed;" parent="1" vertex="1">
          <mxGeometry x="600" y="360" width="80" height="80" as="geometry" />
        </mxCell>
        <mxCell id="sBJwg2jd51SlTlau0avR-56" value="&lt;font color=&quot;#000099&quot;&gt;Job completed&lt;/font&gt;" style="ellipse;whiteSpace=wrap;html=1;" parent="1" vertex="1">
          <mxGeometry x="720" y="240" width="120" height="80" as="geometry" />
        </mxCell>
        <mxCell id="sBJwg2jd51SlTlau0avR-70" value="&lt;font color=&quot;#ff0000&quot;&gt;Job Failed&lt;/font&gt;" style="ellipse;whiteSpace=wrap;html=1;" parent="1" vertex="1">
          <mxGeometry x="40" y="580" width="120" height="80" as="geometry" />
        </mxCell>
        <mxCell id="sBJwg2jd51SlTlau0avR-71" value="" style="endArrow=classic;html=1;rounded=0;exitX=0;exitY=0.5;exitDx=0;exitDy=0;entryX=1;entryY=0.5;entryDx=0;entryDy=0;" parent="1" source="sBJwg2jd51SlTlau0avR-35" target="sBJwg2jd51SlTlau0avR-70" edge="1">
          <mxGeometry width="50" height="50" relative="1" as="geometry">
            <mxPoint x="340" y="580" as="sourcePoint" />
            <mxPoint x="200" y="620" as="targetPoint" />
            <Array as="points" />
          </mxGeometry>
        </mxCell>
        <mxCell id="sBJwg2jd51SlTlau0avR-72" value="" style="endArrow=classic;html=1;rounded=0;exitX=1;exitY=0.5;exitDx=0;exitDy=0;entryX=1;entryY=0.638;entryDx=0;entryDy=0;entryPerimeter=0;" parent="1" source="sBJwg2jd51SlTlau0avR-100" target="sBJwg2jd51SlTlau0avR-55" edge="1">
          <mxGeometry width="50" height="50" relative="1" as="geometry">
            <mxPoint x="340" y="700" as="sourcePoint" />
            <mxPoint x="760" y="720" as="targetPoint" />
            <Array as="points">
              <mxPoint x="800" y="720" />
              <mxPoint x="800" y="660" />
              <mxPoint x="800" y="580" />
              <mxPoint x="800" y="410" />
              <mxPoint x="760" y="411" />
            </Array>
          </mxGeometry>
        </mxCell>
        <mxCell id="sBJwg2jd51SlTlau0avR-73" value="" style="endArrow=classic;html=1;rounded=0;exitX=1;exitY=0.5;exitDx=0;exitDy=0;entryX=0;entryY=0.5;entryDx=0;entryDy=0;" parent="1" source="sBJwg2jd51SlTlau0avR-16" target="sBJwg2jd51SlTlau0avR-55" edge="1">
          <mxGeometry width="50" height="50" relative="1" as="geometry">
            <mxPoint x="340" y="510" as="sourcePoint" />
            <mxPoint x="390" y="460" as="targetPoint" />
          </mxGeometry>
        </mxCell>
        <mxCell id="sBJwg2jd51SlTlau0avR-74" value="no" style="text;html=1;align=center;verticalAlign=middle;resizable=0;points=[];autosize=1;strokeColor=none;fillColor=none;" parent="1" vertex="1">
          <mxGeometry x="500" y="365" width="40" height="30" as="geometry" />
        </mxCell>
        <mxCell id="sBJwg2jd51SlTlau0avR-75" value="&lt;font color=&quot;#ff0000&quot;&gt;failure&lt;/font&gt;" style="text;html=1;align=center;verticalAlign=middle;resizable=0;points=[];autosize=1;strokeColor=none;fillColor=none;" parent="1" vertex="1">
          <mxGeometry x="230" y="590" width="50" height="30" as="geometry" />
        </mxCell>
        <mxCell id="sBJwg2jd51SlTlau0avR-77" value="" style="endArrow=classic;html=1;rounded=0;exitX=1;exitY=0.5;exitDx=0;exitDy=0;startArrow=none;" parent="1" source="sBJwg2jd51SlTlau0avR-100" edge="1">
          <mxGeometry width="50" height="50" relative="1" as="geometry">
            <mxPoint x="340" y="580" as="sourcePoint" />
            <mxPoint x="730" y="720" as="targetPoint" />
          </mxGeometry>
        </mxCell>
        <mxCell id="sBJwg2jd51SlTlau0avR-87" style="edgeStyle=orthogonalEdgeStyle;rounded=0;orthogonalLoop=1;jettySize=auto;html=1;exitX=0;exitY=0.5;exitDx=0;exitDy=0;entryX=1;entryY=0.5;entryDx=0;entryDy=0;" parent="1" source="sBJwg2jd51SlTlau0avR-84" target="sBJwg2jd51SlTlau0avR-40" edge="1">
          <mxGeometry relative="1" as="geometry" />
        </mxCell>
        <mxCell id="sBJwg2jd51SlTlau0avR-84" value="&lt;div&gt;all the enabled &lt;br&gt;&lt;/div&gt;&lt;div&gt;sp agent got &lt;br&gt;&lt;/div&gt;&lt;div&gt;installed ? &lt;/div&gt;" style="rhombus;whiteSpace=wrap;html=1;" parent="1" vertex="1">
          <mxGeometry x="575" y="220" width="130" height="120" as="geometry" />
        </mxCell>
        <mxCell id="sBJwg2jd51SlTlau0avR-88" value="no" style="text;html=1;align=center;verticalAlign=middle;resizable=0;points=[];autosize=1;strokeColor=none;fillColor=none;" parent="1" vertex="1">
          <mxGeometry x="520" y="250" width="40" height="30" as="geometry" />
        </mxCell>
        <mxCell id="sBJwg2jd51SlTlau0avR-92" value="&lt;font color=&quot;#009900&quot;&gt;yes&lt;/font&gt;" style="text;html=1;align=center;verticalAlign=middle;resizable=0;points=[];autosize=1;strokeColor=none;fillColor=none;" parent="1" vertex="1">
          <mxGeometry x="600" y="480" width="40" height="30" as="geometry" />
        </mxCell>
        <mxCell id="sBJwg2jd51SlTlau0avR-93" value="&lt;font color=&quot;#009900&quot;&gt;yes&lt;/font&gt;" style="text;html=1;align=center;verticalAlign=middle;resizable=0;points=[];autosize=1;strokeColor=none;fillColor=none;" parent="1" vertex="1">
          <mxGeometry x="690" y="240" width="40" height="30" as="geometry" />
        </mxCell>
        <mxCell id="sBJwg2jd51SlTlau0avR-94" value="&lt;font color=&quot;#009900&quot;&gt;yes&lt;/font&gt;" style="text;html=1;align=center;verticalAlign=middle;resizable=0;points=[];autosize=1;strokeColor=none;fillColor=none;" parent="1" vertex="1">
          <mxGeometry x="410" y="210" width="40" height="30" as="geometry" />
        </mxCell>
        <mxCell id="sBJwg2jd51SlTlau0avR-95" value="&lt;font color=&quot;#008000&quot;&gt;success&lt;/font&gt;" style="text;html=1;align=center;verticalAlign=middle;resizable=0;points=[];autosize=1;strokeColor=none;fillColor=none;" parent="1" vertex="1">
          <mxGeometry x="635" y="680" width="70" height="30" as="geometry" />
        </mxCell>
        <mxCell id="sBJwg2jd51SlTlau0avR-96" value="" style="endArrow=classic;html=1;rounded=0;fontColor=#336600;exitX=0.5;exitY=1;exitDx=0;exitDy=0;entryX=0.525;entryY=1.1;entryDx=0;entryDy=0;entryPerimeter=0;" parent="1" source="sBJwg2jd51SlTlau0avR-51" target="sBJwg2jd51SlTlau0avR-70" edge="1">
          <mxGeometry width="50" height="50" relative="1" as="geometry">
            <mxPoint x="340" y="660" as="sourcePoint" />
            <mxPoint x="350" y="830" as="targetPoint" />
            <Array as="points">
              <mxPoint x="580" y="800" />
              <mxPoint x="103" y="800" />
            </Array>
          </mxGeometry>
        </mxCell>
        <mxCell id="sBJwg2jd51SlTlau0avR-98" value="&lt;font color=&quot;#ff0000&quot;&gt;failure&lt;/font&gt;" style="text;html=1;align=center;verticalAlign=middle;resizable=0;points=[];autosize=1;strokeColor=none;fillColor=none;" parent="1" vertex="1">
          <mxGeometry x="240" y="770" width="50" height="30" as="geometry" />
        </mxCell>
        <mxCell id="sBJwg2jd51SlTlau0avR-99" value="" style="endArrow=classic;html=1;rounded=0;fontColor=#336600;exitX=1;exitY=0.5;exitDx=0;exitDy=0;entryX=0;entryY=0.5;entryDx=0;entryDy=0;" parent="1" source="sBJwg2jd51SlTlau0avR-84" target="sBJwg2jd51SlTlau0avR-56" edge="1">
          <mxGeometry width="50" height="50" relative="1" as="geometry">
            <mxPoint x="340" y="250" as="sourcePoint" />
            <mxPoint x="390" y="200" as="targetPoint" />
          </mxGeometry>
        </mxCell>
        <mxCell id="sBJwg2jd51SlTlau0avR-100" value="associate with Domain &amp;amp; Schedule&lt;br&gt;" style="whiteSpace=wrap;aspect=fixed;labelBackgroundColor=default;fontColor=#336600;strokeColor=default;gradientColor=none;labelBorderColor=none;html=1;" parent="1" vertex="1">
          <mxGeometry x="700" y="680" width="80" height="80" as="geometry" />
        </mxCell>
        <mxCell id="sBJwg2jd51SlTlau0avR-103" value="&lt;font color=&quot;#008000&quot;&gt;success&lt;/font&gt;" style="text;html=1;align=center;verticalAlign=middle;resizable=0;points=[];autosize=1;strokeColor=none;fillColor=none;" parent="1" vertex="1">
          <mxGeometry x="720" y="620" width="70" height="30" as="geometry" />
        </mxCell>
        <mxCell id="sBJwg2jd51SlTlau0avR-104" value="" style="endArrow=classic;html=1;rounded=0;fontColor=#336600;exitX=0.5;exitY=1;exitDx=0;exitDy=0;" parent="1" source="sBJwg2jd51SlTlau0avR-100" edge="1">
          <mxGeometry width="50" height="50" relative="1" as="geometry">
            <mxPoint x="340" y="660" as="sourcePoint" />
            <mxPoint x="580" y="800" as="targetPoint" />
            <Array as="points">
              <mxPoint x="740" y="800" />
            </Array>
          </mxGeometry>
        </mxCell>
      </root>
    </mxGraphModel>
  </diagram>
</mxfile>
